<svg width="20" height="20" viewBox="0 0 20 20" fill="none" xmlns="http://www.w3.org/2000/svg">
<path d="M4.01333 14.49C5.385 16.3117 7.5575 17.5 10 17.5C14.125 17.5 17.5 14.125 17.5 10C17.5 5.875 14.125 2.5 10 2.5" stroke="#747474" stroke-linecap="round" stroke-linejoin="round"/>
<path d="M4.01333 14.49C3.06833 13.235 2.5 11.6825 2.5 10C2.5 5.875 5.875 2.5 10 2.5" stroke="#747474" stroke-linecap="round" stroke-linejoin="round"/>
<path d="M9.79167 5.83325V6.87492" stroke="#747474" stroke-linecap="round" stroke-linejoin="round"/>
<path d="M9.79167 14.1667V13.125" stroke="#747474" stroke-linecap="round" stroke-linejoin="round"/>
<path d="M11.8642 8.33333C11.81 7.52 11.1392 6.875 10.3125 6.875H9.17083C8.3625 6.875 7.70833 7.53 7.70833 8.3375C7.70833 9.00833 8.165 9.59333 8.815 9.75667L10.7675 10.2467C11.4183 10.41 11.8742 10.995 11.8742 11.6658C11.8742 12.4742 11.2192 13.1283 10.4117 13.1283H9.27C8.44167 13.1283 7.77083 12.4817 7.7175 11.6667" stroke="#747474" stroke-linecap="round" stroke-linejoin="round"/>
</svg>
