<svg width="118" height="16" viewBox="0 0 118 16" fill="none" xmlns="http://www.w3.org/2000/svg">
<path d="M3.53255 0V12.2697H14.0124V15.449H0V0H3.53255Z" fill="black"/>
<path d="M29.8977 0V3.10864H16.1678V6.17019H29.8977V9.25528L16.1678 9.18463V12.2697L29.8977 12.3404V15.449H16.1678V0H29.8977Z" fill="black"/>
<path d="M49.2244 0V0.541658L42.4655 15.449H38.3677L31.6088 0.541658V0H35.2355L40.4166 11.9871L45.5977 0H49.2244Z" fill="black"/>
<path d="M65.0392 0V3.10864H51.3093V6.17019H65.0392V9.25528H51.3093V12.3404H65.0392V15.449H51.3093V0H65.0392Z" fill="black"/>
<path d="M71.8607 0V12.2697H82.3406V15.449H68.3281V0H71.8607Z" fill="black"/>
<path d="M98.2258 0V3.10864H84.496V6.17019H98.2258V9.25528L84.496 9.18463V12.2697L98.2258 12.3404V15.449H84.496V0H98.2258Z" fill="black"/>
<path d="M109.216 0C112.105 0 114.287 0.643709 115.763 1.93113C117.254 3.20284 118 5.09472 118 7.60675V7.86581C118 10.3778 117.262 12.2697 115.786 13.5414C114.31 14.8132 112.12 15.449 109.216 15.449H101.515V0H109.216ZM109.216 12.2697C110.99 12.2697 112.293 11.9165 113.125 11.21C113.973 10.5034 114.397 9.40443 114.397 7.91291V7.5832C114.397 6.10738 113.965 5.00837 113.102 4.28616C112.238 3.54825 110.935 3.17929 109.192 3.17929H105.047V12.2697H109.216Z" fill="black"/>
</svg>
